<svg width="460" height="512" viewBox="0 0 460 512" fill="none" xmlns="http://www.w3.org/2000/svg">
<mask id="mask0_212_145" style="mask-type:alpha" maskUnits="userSpaceOnUse" x="-38" y="0" width="498" height="512">
<rect width="487.759" height="504.281" transform="matrix(0.999872 0.016002 -0.0185708 0.999828 -28.6348 0)" fill="#D9D9D9"/>
</mask>
<g mask="url(#mask0_212_145)">
<path d="M-33.9534 425.41L-32.1194 326.672C-31.8294 311.056 -26.137 297.785 -15.0424 286.86C-3.94772 275.935 8.99972 270.591 23.7999 270.828L93.3982 271.942C100.583 272.057 106.339 273.199 110.667 275.37C114.994 277.541 118.474 280.749 121.105 284.994C131.644 301.273 144.96 313.92 161.054 322.933C177.148 331.947 194.685 336.606 213.664 336.909C232.278 337.207 249.963 333.112 266.721 324.625C283.479 316.137 297.596 303.929 309.071 288.002C311.52 283.838 314.981 280.741 319.454 278.712C323.927 276.682 329.519 275.72 336.23 275.828L406.337 276.95C421.442 277.192 434.259 282.948 444.789 294.219C455.319 305.49 460.439 318.934 460.149 334.55L458.315 433.288L287.621 430.556L288.548 380.662C276.59 386.074 264.23 390.342 251.468 393.465C238.706 396.588 225.744 398.044 212.581 397.834C199.779 397.629 187.029 395.849 174.33 392.493C161.631 389.138 149.407 384.564 137.657 378.772L136.74 428.141L-33.9534 425.41ZM214.248 301.194C203.788 301.027 193.866 298.241 184.48 292.838C175.095 287.434 167.435 280.306 161.502 271.455C153.262 259.065 143.519 250.153 132.271 244.72C121.022 239.286 108.286 236.455 94.0616 236.228C106.814 224.524 125.216 214.836 149.269 207.166C173.322 199.495 195.652 195.825 216.258 196.155C237.203 196.49 259.637 200.877 283.56 209.315C307.483 217.754 325.43 228.023 337.402 240.122C323.177 239.895 310.345 242.228 298.905 247.124C287.465 252.019 277.564 260.704 269.201 273.179C262.943 281.835 254.925 288.711 245.148 293.808C235.371 298.906 225.071 301.368 214.248 301.194ZM53.1854 220.864C34.3322 220.562 18.3179 213.345 5.14236 199.212C-8.03348 185.08 -14.44 168.248 -14.0772 148.716C-13.7149 129.207 -6.67418 112.645 7.04481 99.03C20.7631 85.4151 37.0687 78.7589 55.9615 79.0612C74.8326 79.3632 90.828 86.5715 103.948 100.686C117.067 114.8 123.446 131.591 123.085 151.059C122.723 170.55 115.69 187.132 101.986 200.805C88.2828 214.479 72.0159 221.165 53.1854 220.864ZM378.316 226.067C359.463 225.765 343.449 218.548 330.273 204.416C317.097 190.283 310.691 173.451 311.054 153.92C311.416 134.41 318.457 117.848 332.176 104.233C345.894 90.6185 362.2 83.9623 381.093 84.2647C399.964 84.5667 415.959 91.7749 429.078 105.889C442.198 120.004 448.577 136.795 448.215 156.262C447.853 175.753 440.821 192.335 427.117 206.009C413.414 219.682 397.147 226.368 378.316 226.067ZM217.195 145.735C198.341 145.434 182.327 138.217 169.151 124.084C155.976 109.952 149.569 93.1198 149.932 73.5878C150.294 54.0787 157.335 37.5166 171.054 23.9018C184.773 10.2869 201.078 3.63062 219.971 3.93298C238.842 4.23499 254.837 11.4432 267.957 25.5577C281.076 39.6721 287.455 56.4631 287.094 75.9306C286.732 95.4216 279.699 112.004 265.995 125.677C252.292 139.351 236.025 146.037 217.195 145.735Z" fill="#1C1B1F"/>
</g>
</svg>
