<svg width="24" height="24" viewBox="0 0 24 24" fill="none" xmlns="http://www.w3.org/2000/svg">
<g id="Medium">
<g clip-path="url(#clip0_321_427)">
<path id="Container" fill-rule="evenodd" clip-rule="evenodd" d="M0.562933 2.69513C0 3.77882 0 5.20255 0 8.05V15.95C0 18.7975 0 20.2212 0.562933 21.3049C1.03731 22.2181 1.78191 22.9627 2.69513 23.4371C3.77882 24 5.20255 24 8.05 24H15.95C18.7975 24 20.2212 24 21.3049 23.4371C22.2181 22.9627 22.9627 22.2181 23.4371 21.3049C24 20.2212 24 18.7975 24 15.95V8.05C24 5.20255 24 3.77882 23.4371 2.69513C22.9627 1.78191 22.2181 1.03731 21.3049 0.562933C20.2212 0 18.7975 0 15.95 0H8.05C5.20255 0 3.77882 0 2.69513 0.562933C1.78191 1.03731 1.03731 1.78191 0.562933 2.69513ZM7.64049 17.6793C10.7558 17.6793 13.2812 15.1365 13.2812 11.9999C13.2812 8.86333 10.7556 6.32071 7.64049 6.32071C4.52538 6.32071 2 8.86256 2 11.9999C2 15.1372 4.52519 17.6793 7.64049 17.6793ZM16.6487 17.346C18.2063 17.346 19.4691 14.9526 19.4691 11.9999C19.4691 9.04797 18.2063 6.65379 16.6487 6.65379C15.0912 6.65379 13.8284 9.04797 13.8284 11.9999C13.8284 14.9518 15.0912 17.346 16.6487 17.346ZM21.008 16.7898C21.5558 16.7898 22 14.6454 22 11.9999C22 9.35461 21.5562 7.21 21.0082 7.21C20.4603 7.21 20.0161 9.35519 20.0161 11.9999C20.0161 14.6446 20.4603 16.7898 21.008 16.7898Z" fill="#12100E"/>
<path id="Fill" d="M13.2812 12C13.2812 15.1365 10.7558 17.6794 7.64049 17.6794C4.52519 17.6794 2 15.1373 2 12C2 8.86265 4.52538 6.3208 7.64049 6.3208C10.7556 6.3208 13.2812 8.86342 13.2812 12ZM19.4691 12C19.4691 14.9527 18.2063 17.3461 16.6487 17.3461C15.0912 17.3461 13.8284 14.9519 13.8284 12C13.8284 9.04806 15.0912 6.65388 16.6487 6.65388C18.2063 6.65388 19.4691 9.04806 19.4691 12ZM22 12C22 14.6455 21.5558 16.7899 21.008 16.7899C20.4603 16.7899 20.0161 14.6447 20.0161 12C20.0161 9.35528 20.4603 7.21009 21.0082 7.21009C21.5562 7.21009 22 9.3547 22 12Z" fill="white"/>
</g>
</g>
<defs>
<clipPath id="clip0_321_427">
<rect width="24" height="24" rx="12" fill="white"/>
</clipPath>
</defs>
</svg>
