<svg width="54" height="56" viewBox="0 0 54 56" fill="none" xmlns="http://www.w3.org/2000/svg">
<g id="Group 7013">
<g id="Rectangle 2796" filter="url(#filter0_d_348_332)">
<rect x="4.1333" y="0.662109" width="45.7318" height="47.022" rx="13" fill="#D9D9D9"/>
</g>
<g id="&#240;&#159;&#166;&#134; icon &#34;open select hand gesture&#34;">
<path id="Vector" d="M21.6941 26.9716L19.4603 24.8142C18.6736 24.0545 17.4212 24.1122 16.7058 24.9414C16.0593 25.6906 16.0783 26.8149 16.7498 27.5413L24.0316 35.4177C24.495 35.9189 25.141 36.2032 25.8185 36.2032C27.1481 36.2032 29.3342 36.2032 31.498 36.2032C34.4392 36.2032 36.3999 33.7178 36.3999 31.2324C36.3999 31.2324 36.3999 22.711 36.3999 20.5806" stroke="black" stroke-width="2" stroke-linecap="round" stroke-linejoin="round"/>
<path id="Vector_2" d="M32.7233 21.2904C32.7233 21.2904 32.7233 21.135 32.7233 20.5803C32.7233 17.7398 36.3997 17.7398 36.3997 20.5803" stroke="black" stroke-width="2" stroke-linecap="round" stroke-linejoin="round"/>
<path id="Vector_3" d="M29.0471 21.2903C29.0471 21.2903 29.0471 20.2692 29.0471 19.1599C29.0471 16.3194 32.7236 16.3194 32.7236 19.1599C32.7236 19.4372 32.7236 20.3028 32.7236 20.5801C32.7236 21.1348 32.7236 21.2903 32.7236 21.2903" stroke="black" stroke-width="2" stroke-linecap="round" stroke-linejoin="round"/>
<path id="Vector_4" d="M25.3705 21.2909C25.3705 21.2909 25.3705 19.5707 25.3705 18.1841C25.3705 15.3436 29.0469 15.3436 29.0469 18.1841C29.0469 18.1841 29.0469 18.8832 29.0469 19.1605C29.0469 20.2698 29.0469 21.2909 29.0469 21.2909" stroke="black" stroke-width="2" stroke-linecap="round" stroke-linejoin="round"/>
<path id="Vector_5" d="M21.6941 26.9715V13.2129C21.6941 12.1834 22.5171 11.3489 23.5323 11.3489C24.5475 11.3489 25.3705 12.1822 25.3705 13.2117C25.3705 14.6914 25.3705 16.7442 25.3705 18.1838C25.3705 19.5704 25.3705 21.2906 25.3705 21.2906" stroke="black" stroke-width="2" stroke-linecap="round" stroke-linejoin="round"/>
</g>
</g>
<defs>
<filter id="filter0_d_348_332" x="0.133301" y="0.662109" width="53.7318" height="55.022" filterUnits="userSpaceOnUse" color-interpolation-filters="sRGB">
<feFlood flood-opacity="0" result="BackgroundImageFix"/>
<feColorMatrix in="SourceAlpha" type="matrix" values="0 0 0 0 0 0 0 0 0 0 0 0 0 0 0 0 0 0 127 0" result="hardAlpha"/>
<feOffset dy="4"/>
<feGaussianBlur stdDeviation="2"/>
<feComposite in2="hardAlpha" operator="out"/>
<feColorMatrix type="matrix" values="0 0 0 0 0 0 0 0 0 0 0 0 0 0 0 0 0 0 0.25 0"/>
<feBlend mode="normal" in2="BackgroundImageFix" result="effect1_dropShadow_348_332"/>
<feBlend mode="normal" in="SourceGraphic" in2="effect1_dropShadow_348_332" result="shape"/>
</filter>
</defs>
</svg>
