<svg width="35" height="35" viewBox="0 0 35 35" fill="none" xmlns="http://www.w3.org/2000/svg">
<g id="acute">
<mask id="mask0_417_904" style="mask-type:alpha" maskUnits="userSpaceOnUse" x="0" y="0" width="35" height="35">
<rect id="Bounding box" width="35" height="35" fill="#D9D9D9"/>
</mask>
<g mask="url(#mask0_417_904)">
<path id="acute_2" d="M21.875 29.1668C18.6181 29.1668 15.8594 28.0366 13.599 25.7762C11.3386 23.5158 10.2083 20.7571 10.2083 17.5002C10.2083 14.2675 11.3386 11.5149 13.599 9.24235C15.8594 6.96978 18.6181 5.8335 21.875 5.8335C25.1076 5.8335 27.8603 6.96978 30.1328 9.24235C32.4054 11.5149 33.5417 14.2675 33.5417 17.5002C33.5417 20.7571 32.4054 23.5158 30.1328 25.7762C27.8603 28.0366 25.1076 29.1668 21.875 29.1668ZM21.875 26.2502C24.3056 26.2502 26.3715 25.3995 28.0729 23.6981C29.7743 21.9967 30.625 19.9307 30.625 17.5002C30.625 15.0696 29.7743 13.0036 28.0729 11.3022C26.3715 9.60086 24.3056 8.75016 21.875 8.75016C19.4445 8.75016 17.3785 9.60086 15.6771 11.3022C13.9757 13.0036 13.125 15.0696 13.125 17.5002C13.125 19.9307 13.9757 21.9967 15.6771 23.6981C17.3785 25.3995 19.4445 26.2502 21.875 26.2502ZM25.1927 22.9325L27.2708 20.8543L23.3333 16.9168V11.6668H20.4167V18.12L25.1927 22.9325ZM2.91668 13.1252V10.2085H8.75001V13.1252H2.91668ZM1.45834 18.9585V16.0418H8.75001V18.9585H1.45834ZM2.91668 24.7918V21.8752H8.75001V24.7918H2.91668Z" fill="#1C1B1F"/>
</g>
</g>
</svg>
