<svg width="40" height="36" viewBox="0 0 40 36" fill="none" xmlns="http://www.w3.org/2000/svg">
<g id="calendar_month">
<mask id="mask0_518_1145" style="mask-type:alpha" maskUnits="userSpaceOnUse" x="0" y="0" width="40" height="36">
<rect id="Bounding box" width="40" height="35.666" fill="#D9D9D9"/>
</mask>
<g mask="url(#mask0_518_1145)">
<path id="calendar_month_2" d="M8.33333 32.6943C7.41667 32.6943 6.63194 32.4033 5.97917 31.8213C5.32639 31.2392 5 30.5395 5 29.7222V8.91699C5 8.09965 5.32639 7.39995 5.97917 6.8179C6.63194 6.23585 7.41667 5.94482 8.33333 5.94482H10V2.97266H13.3333V5.94482H26.6667V2.97266H30V5.94482H31.6667C32.5833 5.94482 33.3681 6.23585 34.0208 6.8179C34.6736 7.39995 35 8.09965 35 8.91699V29.7222C35 30.5395 34.6736 31.2392 34.0208 31.8213C33.3681 32.4033 32.5833 32.6943 31.6667 32.6943H8.33333ZM8.33333 29.7222H31.6667V14.8613H8.33333V29.7222ZM8.33333 11.8892H31.6667V8.91699H8.33333V11.8892ZM20 20.8057C19.5278 20.8057 19.1319 20.6632 18.8125 20.3784C18.4931 20.0936 18.3333 19.7406 18.3333 19.3196C18.3333 18.8985 18.4931 18.5456 18.8125 18.2607C19.1319 17.9759 19.5278 17.8335 20 17.8335C20.4722 17.8335 20.8681 17.9759 21.1875 18.2607C21.5069 18.5456 21.6667 18.8985 21.6667 19.3196C21.6667 19.7406 21.5069 20.0936 21.1875 20.3784C20.8681 20.6632 20.4722 20.8057 20 20.8057ZM13.3333 20.8057C12.8611 20.8057 12.4653 20.6632 12.1458 20.3784C11.8264 20.0936 11.6667 19.7406 11.6667 19.3196C11.6667 18.8985 11.8264 18.5456 12.1458 18.2607C12.4653 17.9759 12.8611 17.8335 13.3333 17.8335C13.8056 17.8335 14.2014 17.9759 14.5208 18.2607C14.8403 18.5456 15 18.8985 15 19.3196C15 19.7406 14.8403 20.0936 14.5208 20.3784C14.2014 20.6632 13.8056 20.8057 13.3333 20.8057ZM26.6667 20.8057C26.1944 20.8057 25.7986 20.6632 25.4792 20.3784C25.1597 20.0936 25 19.7406 25 19.3196C25 18.8985 25.1597 18.5456 25.4792 18.2607C25.7986 17.9759 26.1944 17.8335 26.6667 17.8335C27.1389 17.8335 27.5347 17.9759 27.8542 18.2607C28.1736 18.5456 28.3333 18.8985 28.3333 19.3196C28.3333 19.7406 28.1736 20.0936 27.8542 20.3784C27.5347 20.6632 27.1389 20.8057 26.6667 20.8057ZM20 26.75C19.5278 26.75 19.1319 26.6076 18.8125 26.3228C18.4931 26.0379 18.3333 25.685 18.3333 25.2639C18.3333 24.8429 18.4931 24.4899 18.8125 24.2051C19.1319 23.9202 19.5278 23.7778 20 23.7778C20.4722 23.7778 20.8681 23.9202 21.1875 24.2051C21.5069 24.4899 21.6667 24.8429 21.6667 25.2639C21.6667 25.685 21.5069 26.0379 21.1875 26.3228C20.8681 26.6076 20.4722 26.75 20 26.75ZM13.3333 26.75C12.8611 26.75 12.4653 26.6076 12.1458 26.3228C11.8264 26.0379 11.6667 25.685 11.6667 25.2639C11.6667 24.8429 11.8264 24.4899 12.1458 24.2051C12.4653 23.9202 12.8611 23.7778 13.3333 23.7778C13.8056 23.7778 14.2014 23.9202 14.5208 24.2051C14.8403 24.4899 15 24.8429 15 25.2639C15 25.685 14.8403 26.0379 14.5208 26.3228C14.2014 26.6076 13.8056 26.75 13.3333 26.75ZM26.6667 26.75C26.1944 26.75 25.7986 26.6076 25.4792 26.3228C25.1597 26.0379 25 25.685 25 25.2639C25 24.8429 25.1597 24.4899 25.4792 24.2051C25.7986 23.9202 26.1944 23.7778 26.6667 23.7778C27.1389 23.7778 27.5347 23.9202 27.8542 24.2051C28.1736 24.4899 28.3333 24.8429 28.3333 25.2639C28.3333 25.685 28.1736 26.0379 27.8542 26.3228C27.5347 26.6076 27.1389 26.75 26.6667 26.75Z" fill="#1C1B1F"/>
</g>
</g>
</svg>
