<svg width="27" height="31" viewBox="0 0 27 31" fill="none" xmlns="http://www.w3.org/2000/svg">
<path id="developer_guide" d="M3 31C2.175 31 1.46875 30.6627 0.88125 29.9882C0.29375 29.3137 0 28.5028 0 27.5556V3.44444C0 2.49722 0.29375 1.68634 0.88125 1.01181C1.46875 0.337269 2.175 0 3 0H24C24.825 0 25.5313 0.337269 26.1188 1.01181C26.7063 1.68634 27 2.49722 27 3.44444V27.5556C27 28.5028 26.7063 29.3137 26.1188 29.9882C25.5313 30.6627 24.825 31 24 31H3ZM3 3.44444V27.5556H24V3.44444H21V15.5L17.25 12.9167L13.5 15.5V3.44444H3Z" fill="#1C1B1F"/>
</svg>
