<svg width="24" height="24" viewBox="0 0 24 24" fill="none" xmlns="http://www.w3.org/2000/svg">
<g id="Group">
<path id="Vector" d="M24 12.0003C24 18.061 19.5071 23.0713 13.6708 23.8846C13.125 23.9606 12.5666 24 12 24C11.3456 24 10.7037 23.9475 10.0776 23.8466C4.36438 22.9269 0 17.9725 0 11.9997C0 5.37242 5.37258 0 12 0C18.6275 0 24 5.37242 24 11.9997V12.0003Z" fill="#1C1C1B"/>
<g id="Group_2">
<path id="Vector_2" d="M5.83893 7.94777C5.51899 7.65064 5.35938 7.28304 5.35938 6.84565C5.35938 6.40825 5.51899 6.02406 5.83893 5.72694C6.15886 5.42981 6.5707 5.28125 7.07582 5.28125C7.58095 5.28125 7.97621 5.42981 8.29546 5.72694C8.61539 6.02406 8.77501 6.3972 8.77501 6.84565C8.77501 7.2941 8.61539 7.65064 8.29546 7.94777C7.97552 8.24489 7.5692 8.39345 7.07582 8.39345C6.58244 8.39345 6.15886 8.24489 5.83893 7.94777ZM8.50551 9.65174V18.7568H5.62886V9.65174H8.50551Z" fill="#FEFFFC"/>
<path id="Vector_3" d="M18.0843 10.5507C18.711 11.2313 19.0248 12.1662 19.0248 13.3561V18.5965H16.2918V13.7257C16.2918 13.126 16.1364 12.6595 15.8254 12.3272C15.5145 11.9948 15.0964 11.829 14.5712 11.829C14.0461 11.829 13.628 11.9955 13.317 12.3272C13.0061 12.6595 12.8506 13.126 12.8506 13.7257V18.5965H10.1018V9.62681H12.8506V10.8167C13.1291 10.4201 13.5043 10.107 13.9763 9.87625C14.4475 9.64616 14.9782 9.53076 15.5677 9.53076C16.618 9.53076 17.4569 9.87141 18.0836 10.5513L18.0843 10.5507Z" fill="#FEFFFC"/>
</g>
</g>
</svg>
