<svg width="58" height="65" viewBox="0 0 58 65" fill="none" xmlns="http://www.w3.org/2000/svg">
<g id="Group 7011">
<g id="Rectangle 2797" filter="url(#filter0_d_417_1237)">
<rect x="4" y="0.265625" width="50" height="56.6667" rx="13" fill="#D9D9D9"/>
</g>
<g id="&#240;&#159;&#166;&#134; icon &#34;medal achievement bold&#34;">
<g id="Vector">
<path d="M28.4282 36.5684C26.814 36.568 25.2717 36.2606 23.8566 35.7016V42.4059L28.4282 38.9204L32.9997 42.4059V35.7041C31.5909 36.2594 30.0456 36.568 28.4283 36.5684H28.4281L28.4282 36.5684ZM20.5912 33.7884C18.3002 31.9239 16.7059 29.2932 16.1963 26.2938L16.1862 26.2211C16.0677 25.5745 16 24.8305 16 24.0707C16 21.3764 16.8516 18.8807 18.3006 16.8378L18.2744 16.8768C20.5646 13.6669 24.278 11.5986 28.4749 11.5986L28.5163 11.5987H28.5186H28.5443C31.2365 11.5987 33.7302 12.4476 35.7719 13.892L35.7329 13.8659C38.9328 16.1432 40.9957 19.8351 41 24.0087V24.0094C40.9767 27.9692 39.1339 31.495 36.2652 33.7967V48.9986L28.4282 43.0241L20.5912 48.9986L20.5912 33.7884ZM33.7002 31.4779L34.8998 30.6442C36.6352 28.9459 37.7089 26.6053 37.7346 24.0142V24.0094C37.7313 20.9334 36.2114 18.2128 33.8817 16.5532L33.8538 16.5342C32.3729 15.4873 30.5297 14.8607 28.5399 14.8607L28.5165 14.8608L28.5164 14.8608L28.4726 14.8607C25.3783 14.8607 22.6401 16.3834 20.9677 18.7197L20.9487 18.7476C19.8958 20.232 19.2656 22.0803 19.2656 24.0756C19.2656 24.6401 19.316 25.1927 19.4127 25.7294L19.4043 25.673C19.7336 27.6308 20.6585 29.3518 21.9828 30.6624L23.1562 31.4779C24.625 32.5182 26.4536 33.1415 28.4278 33.1432H28.4282C30.4028 33.1414 32.2314 32.5182 33.7289 31.4587L33.7002 31.4779ZM28.4282 17.8114L30.3875 21.889L34.6325 22.5414L31.5304 25.6404L32.3467 30.0443L28.4282 27.9239L24.5097 30.0443L25.3261 25.6405L22.224 22.5414L26.469 21.8891L28.4282 17.8114Z" fill="black"/>
<path d="M28.4282 36.5684C26.814 36.568 25.2717 36.2606 23.8566 35.7016V42.4059L28.4282 38.9204L32.9997 42.4059V35.7041C31.5909 36.2594 30.0456 36.568 28.4283 36.5684H28.4281L28.4282 36.5684ZM20.5912 33.7884C18.3002 31.9239 16.7059 29.2932 16.1963 26.2938L16.1862 26.2211C16.0677 25.5745 16 24.8305 16 24.0707C16 21.3764 16.8516 18.8807 18.3006 16.8378L18.2744 16.8768C20.5646 13.6669 24.278 11.5986 28.4749 11.5986L28.5163 11.5987H28.5186H28.5443C31.2365 11.5987 33.7302 12.4476 35.7719 13.892L35.7329 13.8659C38.9328 16.1432 40.9957 19.8351 41 24.0087V24.0094C40.9767 27.9692 39.1339 31.495 36.2652 33.7967V48.9986L28.4282 43.0241L20.5912 48.9986L20.5912 33.7884ZM33.7002 31.4779L34.8998 30.6442C36.6352 28.9459 37.7089 26.6053 37.7346 24.0142V24.0094C37.7313 20.9334 36.2114 18.2128 33.8817 16.5532L33.8538 16.5342C32.3729 15.4873 30.5297 14.8607 28.5399 14.8607L28.5165 14.8608L28.5164 14.8608L28.4726 14.8607C25.3783 14.8607 22.6401 16.3834 20.9677 18.7197L20.9487 18.7476C19.8958 20.232 19.2656 22.0803 19.2656 24.0756C19.2656 24.6401 19.316 25.1927 19.4127 25.7294L19.4043 25.673C19.7336 27.6308 20.6585 29.3518 21.9828 30.6624L23.1562 31.4779C24.625 32.5182 26.4536 33.1415 28.4278 33.1432H28.4282C30.4028 33.1414 32.2314 32.5182 33.7289 31.4587L33.7002 31.4779ZM28.4282 17.8114L30.3875 21.889L34.6325 22.5414L31.5304 25.6404L32.3467 30.0443L28.4282 27.9239L24.5097 30.0443L25.3261 25.6405L22.224 22.5414L26.469 21.8891L28.4282 17.8114Z" stroke="black"/>
</g>
</g>
</g>
<defs>
<filter id="filter0_d_417_1237" x="0" y="0.265625" width="58" height="64.667" filterUnits="userSpaceOnUse" color-interpolation-filters="sRGB">
<feFlood flood-opacity="0" result="BackgroundImageFix"/>
<feColorMatrix in="SourceAlpha" type="matrix" values="0 0 0 0 0 0 0 0 0 0 0 0 0 0 0 0 0 0 127 0" result="hardAlpha"/>
<feOffset dy="4"/>
<feGaussianBlur stdDeviation="2"/>
<feComposite in2="hardAlpha" operator="out"/>
<feColorMatrix type="matrix" values="0 0 0 0 0 0 0 0 0 0 0 0 0 0 0 0 0 0 0.25 0"/>
<feBlend mode="normal" in2="BackgroundImageFix" result="effect1_dropShadow_417_1237"/>
<feBlend mode="normal" in="SourceGraphic" in2="effect1_dropShadow_417_1237" result="shape"/>
</filter>
</defs>
</svg>
