<svg width="24" height="24" viewBox="0 0 24 24" fill="none" xmlns="http://www.w3.org/2000/svg">
<g id="Group">
<path id="Vector" d="M24 12.0003C24 18.061 19.5071 23.0713 13.6708 23.8846C13.125 23.9606 12.5666 24 12 24C11.3456 24 10.7037 23.9475 10.0776 23.8466C4.36438 22.9269 0 17.9725 0 11.9997C0 5.37241 5.37255 0 12 0C18.6274 0 24 5.37241 24 11.9997V12.0003Z" fill="#1C1C1B"/>
<path id="Vector_2" d="M19.0932 7.60437C18.7601 7.94088 18.2985 8.14887 17.7871 8.14887C17.7222 8.14887 17.6573 8.14541 17.5944 8.1385C18.1278 7.81858 18.5397 7.31761 18.7449 6.71991C18.7449 6.71991 18.7456 6.71991 18.7456 6.71922C18.7739 6.63906 18.7981 6.55822 18.8174 6.47461C18.3952 6.92582 17.8182 7.23124 17.1708 7.30379C17.0713 7.31554 16.9704 7.32107 16.8681 7.32107C16.8356 7.32107 16.8045 7.32038 16.7734 7.3183C16.5544 7.0882 16.2932 6.89818 16.0037 6.7586C15.681 6.60106 15.3203 6.50847 14.9395 6.49672C14.9084 6.49465 14.8773 6.49396 14.8449 6.49396C14.5222 6.49396 14.2126 6.55131 13.9265 6.65703C13.8533 6.68398 13.7821 6.713 13.7123 6.74686C12.8057 7.17181 12.1783 8.0929 12.1783 9.16047C12.1783 9.37951 12.2052 9.59234 12.2543 9.79549C11.9765 9.78443 11.7015 9.75748 11.432 9.7174C11.3456 9.70358 11.2592 9.68907 11.1735 9.67249C10.486 9.54466 9.83023 9.32492 9.22076 9.02642C8.67556 8.7597 8.16698 8.43079 7.7047 8.04798C7.31566 7.72737 6.9598 7.36944 6.64194 6.97834C6.62812 6.96175 6.61428 6.94448 6.60115 6.9279C6.58249 6.95623 6.56523 6.98456 6.55003 7.01427C6.32753 7.40329 6.20176 7.85313 6.20176 8.33267C6.20176 8.34718 6.20174 8.36307 6.20244 8.37758C6.20796 8.7369 6.28397 9.07893 6.4201 9.38988C6.47814 9.52807 6.54864 9.65867 6.62949 9.78236C6.86789 10.1493 7.19333 10.4547 7.57753 10.6661C7.59481 10.6772 7.61277 10.6862 7.63074 10.6945C7.6031 10.7 7.57479 10.7048 7.54645 10.7076C7.46768 10.718 7.38614 10.7235 7.3046 10.7235C6.89553 10.7235 6.51479 10.5956 6.20314 10.378C6.20107 10.4008 6.20105 10.4243 6.20105 10.4478C6.20105 11.2092 6.5203 11.8961 7.03164 12.3805C7.42966 12.7605 7.94448 13.0155 8.51663 13.0901C8.31071 13.1654 8.08819 13.2062 7.8567 13.2062C7.60586 13.2062 7.36539 13.1585 7.14565 13.0708C7.47319 14.1356 8.44961 14.9164 9.61326 14.9509C8.90222 15.6896 7.90368 16.1484 6.79876 16.1484C6.11191 16.1484 5.46651 15.9708 4.9068 15.6599C6.25219 16.8242 8.00664 17.5276 9.92557 17.5276C14.1663 17.5276 17.6034 14.0907 17.6034 9.85007C17.6034 9.61652 17.593 9.38573 17.5722 9.15771C18.2736 8.88062 18.8299 8.3147 19.0932 7.60506V7.60437Z" fill="white"/>
</g>
</svg>
