<svg width="58" height="66" viewBox="0 0 58 66" fill="none" xmlns="http://www.w3.org/2000/svg">
<g id="Group 7010">
<g id="Rectangle 2798" filter="url(#filter0_d_417_1233)">
<rect x="4" y="0.666992" width="50" height="56.6667" rx="13" fill="#D9D9D9"/>
</g>
<g id="&#240;&#159;&#166;&#134; icon &#34;Keyboard&#34;">
<path id="Vector" d="M42.3333 18.8008H15.6667C14.1939 18.8008 13 20.1098 13 21.7246V39.2678C13 40.8827 14.1939 42.1917 15.6667 42.1917H42.3333C43.8061 42.1917 45 40.8827 45 39.2678V21.7246C45 20.1098 43.8061 18.8008 42.3333 18.8008ZM42.7778 39.2678C42.7778 39.5365 42.5784 39.7552 42.3333 39.7552H15.6667C15.4216 39.7552 15.2222 39.5365 15.2222 39.2678V21.7246C15.2222 21.456 15.4216 21.2373 15.6667 21.2373H42.3333C42.5784 21.2373 42.7778 21.456 42.7778 21.7246V39.2678ZM22.4444 31.349V29.6435C22.4444 29.2398 22.1459 28.9125 21.7778 28.9125H20.2222C19.8541 28.9125 19.5556 29.2398 19.5556 29.6435V31.349C19.5556 31.7527 19.8541 32.08 20.2222 32.08H21.7778C22.1459 32.08 22.4444 31.7527 22.4444 31.349ZM27.7778 31.349V29.6435C27.7778 29.2398 27.4793 28.9125 27.1111 28.9125H25.5556C25.1874 28.9125 24.8889 29.2398 24.8889 29.6435V31.349C24.8889 31.7527 25.1874 32.08 25.5556 32.08H27.1111C27.4793 32.08 27.7778 31.7527 27.7778 31.349ZM33.1111 31.349V29.6435C33.1111 29.2398 32.8126 28.9125 32.4444 28.9125H30.8889C30.5207 28.9125 30.2222 29.2398 30.2222 29.6435V31.349C30.2222 31.7527 30.5207 32.08 30.8889 32.08H32.4444C32.8126 32.08 33.1111 31.7527 33.1111 31.349ZM38.4444 31.349V29.6435C38.4444 29.2398 38.1459 28.9125 37.7778 28.9125H36.2222C35.8541 28.9125 35.5556 29.2398 35.5556 29.6435V31.349C35.5556 31.7527 35.8541 32.08 36.2222 32.08H37.7778C38.1459 32.08 38.4444 31.7527 38.4444 31.349ZM19.7778 36.344V34.6384C19.7778 34.2347 19.4793 33.9074 19.1111 33.9074H17.5556C17.1874 33.9074 16.8889 34.2347 16.8889 34.6384V36.344C16.8889 36.7477 17.1874 37.0749 17.5556 37.0749H19.1111C19.4793 37.0749 19.7778 36.7477 19.7778 36.344ZM41.1111 36.344V34.6384C41.1111 34.2347 40.8126 33.9074 40.4444 33.9074H38.8889C38.5207 33.9074 38.2222 34.2347 38.2222 34.6384V36.344C38.2222 36.7477 38.5207 37.0749 38.8889 37.0749H40.4444C40.8126 37.0749 41.1111 36.7477 41.1111 36.344ZM19.7778 26.3541V24.6485C19.7778 24.2448 19.4793 23.9175 19.1111 23.9175H17.5556C17.1874 23.9175 16.8889 24.2448 16.8889 24.6485V26.3541C16.8889 26.7578 17.1874 27.0851 17.5556 27.0851H19.1111C19.4793 27.0851 19.7778 26.7578 19.7778 26.3541ZM25.1111 26.3541V24.6485C25.1111 24.2448 24.8126 23.9175 24.4444 23.9175H22.8889C22.5207 23.9175 22.2222 24.2448 22.2222 24.6485V26.3541C22.2222 26.7578 22.5207 27.0851 22.8889 27.0851H24.4444C24.8126 27.0851 25.1111 26.7578 25.1111 26.3541ZM30.4444 26.3541V24.6485C30.4444 24.2448 30.1459 23.9175 29.7778 23.9175H28.2222C27.8541 23.9175 27.5556 24.2448 27.5556 24.6485V26.3541C27.5556 26.7578 27.8541 27.0851 28.2222 27.0851H29.7778C30.1459 27.0851 30.4444 26.7578 30.4444 26.3541ZM35.7778 26.3541V24.6485C35.7778 24.2448 35.4793 23.9175 35.1111 23.9175H33.5556C33.1874 23.9175 32.8889 24.2448 32.8889 24.6485V26.3541C32.8889 26.7578 33.1874 27.0851 33.5556 27.0851H35.1111C35.4793 27.0851 35.7778 26.7578 35.7778 26.3541ZM41.1111 26.3541V24.6485C41.1111 24.2448 40.8126 23.9175 40.4444 23.9175H38.8889C38.5207 23.9175 38.2222 24.2448 38.2222 24.6485V26.3541C38.2222 26.7578 38.5207 27.0851 38.8889 27.0851H40.4444C40.8126 27.0851 41.1111 26.7578 41.1111 26.3541ZM35.6667 35.9785V35.0039C35.6667 34.6002 35.3682 34.2729 35 34.2729H23C22.6318 34.2729 22.3333 34.6002 22.3333 35.0039V35.9785C22.3333 36.3822 22.6318 36.7095 23 36.7095H35C35.3682 36.7095 35.6667 36.3822 35.6667 35.9785Z" fill="black"/>
</g>
</g>
<defs>
<filter id="filter0_d_417_1233" x="0" y="0.666992" width="58" height="64.667" filterUnits="userSpaceOnUse" color-interpolation-filters="sRGB">
<feFlood flood-opacity="0" result="BackgroundImageFix"/>
<feColorMatrix in="SourceAlpha" type="matrix" values="0 0 0 0 0 0 0 0 0 0 0 0 0 0 0 0 0 0 127 0" result="hardAlpha"/>
<feOffset dy="4"/>
<feGaussianBlur stdDeviation="2"/>
<feComposite in2="hardAlpha" operator="out"/>
<feColorMatrix type="matrix" values="0 0 0 0 0 0 0 0 0 0 0 0 0 0 0 0 0 0 0.25 0"/>
<feBlend mode="normal" in2="BackgroundImageFix" result="effect1_dropShadow_417_1233"/>
<feBlend mode="normal" in="SourceGraphic" in2="effect1_dropShadow_417_1233" result="shape"/>
</filter>
</defs>
</svg>
