<svg width="11" height="9" viewBox="0 0 11 9" fill="none" xmlns="http://www.w3.org/2000/svg">
<path d="M1.16683 8.83366C0.868913 8.83366 0.613878 8.72758 0.401725 8.51543C0.189572 8.30328 0.0834961 8.04824 0.0834961 7.75033V1.25033C0.0834961 0.952409 0.189572 0.697374 0.401725 0.485221C0.613878 0.273069 0.868913 0.166992 1.16683 0.166992H9.8335C10.1314 0.166992 10.3864 0.273069 10.5986 0.485221C10.8108 0.697374 10.9168 0.952409 10.9168 1.25033V7.75033C10.9168 8.04824 10.8108 8.30328 10.5986 8.51543C10.3864 8.72758 10.1314 8.83366 9.8335 8.83366H1.16683ZM5.50016 5.04199L9.8335 2.33366V1.25033L5.50016 3.95866L1.16683 1.25033V2.33366L5.50016 5.04199Z" fill="#5E5854"/>
</svg>
