<svg width="15" height="15" viewBox="0 0 15 15" fill="none" xmlns="http://www.w3.org/2000/svg">
<path fill-rule="evenodd" clip-rule="evenodd" d="M7.50621 0C3.35547 0 0 3.43749 0 7.69012C0 11.0895 2.14996 13.967 5.13253 14.9854C5.50543 15.062 5.64202 14.8199 5.64202 14.6163C5.64202 14.4381 5.62973 13.827 5.62973 13.1903C3.54169 13.6487 3.10687 12.2735 3.10687 12.2735C2.77131 11.3823 2.27411 11.1532 2.27411 11.1532C1.59069 10.6821 2.32389 10.6821 2.32389 10.6821C3.08198 10.7331 3.47977 11.4715 3.47977 11.4715C4.15074 12.6428 5.23194 12.3118 5.66691 12.1081C5.72899 11.6115 5.92796 11.2678 6.13922 11.0768C4.47386 10.8985 2.72168 10.2365 2.72168 7.28263C2.72168 6.44232 3.01975 5.75482 3.49206 5.22013C3.41754 5.0292 3.1565 4.23967 3.56673 3.18296C3.56673 3.18296 4.20052 2.97921 5.62958 3.97233C6.24141 3.80399 6.87238 3.71836 7.50621 3.71764C8.13999 3.71764 8.78607 3.80686 9.38268 3.97233C10.8119 2.97921 11.4457 3.18296 11.4457 3.18296C11.8559 4.23967 11.5947 5.0292 11.5202 5.22013C12.005 5.75482 12.2907 6.44232 12.2907 7.28263C12.2907 10.2365 10.5386 10.8857 8.86075 11.0768C9.13424 11.3187 9.37024 11.777 9.37024 12.5028C9.37024 13.534 9.35794 14.3617 9.35794 14.6162C9.35794 14.8199 9.49469 15.062 9.86743 14.9856C12.85 13.9668 15 11.0895 15 7.69012C15.0123 3.43749 11.6445 0 7.50621 0Z" fill="#5E5854"/>
</svg>
