<svg width="15" height="15" viewBox="0 0 15 15" fill="none" xmlns="http://www.w3.org/2000/svg">
<path d="M15 7.50022C15 11.2881 12.1919 14.4196 8.54428 14.9279C8.20309 14.9754 7.85415 15 7.50001 15C7.09102 15 6.68979 14.9672 6.29851 14.9041C2.72774 14.3293 0 11.2328 0 7.49979C0 3.35776 3.35786 0 7.50001 0C11.6422 0 15 3.35819 15 7.50022Z" fill="#5E5854"/>
<path d="M3.64933 4.96735C3.44937 4.78165 3.34961 4.5519 3.34961 4.27853C3.34961 4.00516 3.44937 3.76504 3.64933 3.57934C3.84929 3.39363 4.10669 3.30078 4.42239 3.30078C4.73809 3.30078 4.98513 3.39363 5.18466 3.57934C5.38462 3.76504 5.48438 3.99825 5.48438 4.27853C5.48438 4.55881 5.38462 4.78165 5.18466 4.96735C4.9847 5.15306 4.73075 5.2459 4.42239 5.2459C4.11403 5.2459 3.84929 5.15306 3.64933 4.96735ZM5.31594 6.03234V11.723H3.51804V6.03234H5.31594Z" fill="white"/>
<path d="M11.3025 6.59349C11.6943 7.01888 11.8903 7.60319 11.8903 8.34686V11.6221H10.1822V8.57791C10.1822 8.20305 10.0851 7.91154 9.89073 7.70381C9.69639 7.49609 9.4351 7.39244 9.10687 7.39244C8.77865 7.39244 8.51734 7.49652 8.323 7.70381C8.12865 7.91154 8.03148 8.20305 8.03148 8.57791V11.6221H6.31348V6.01608H8.03148V6.75976C8.20553 6.51187 8.44004 6.31623 8.73501 6.17199C9.02955 6.02818 9.36125 5.95605 9.72964 5.95605C10.3861 5.95605 10.9104 6.16896 11.3021 6.59392L11.3025 6.59349Z" fill="white"/>
</svg>
