<svg width="13" height="13" viewBox="0 0 13 13" fill="none" xmlns="http://www.w3.org/2000/svg">
<mask id="mask0_2088_1889" style="mask-type:alpha" maskUnits="userSpaceOnUse" x="0" y="0" width="13" height="13">
<rect width="13" height="13" fill="#D9D9D9"/>
</mask>
<g mask="url(#mask0_2088_1889)">
<path d="M6.49984 6.49967C6.79775 6.49967 7.05279 6.3936 7.26494 6.18145C7.47709 5.96929 7.58317 5.71426 7.58317 5.41634C7.58317 5.11842 7.47709 4.86339 7.26494 4.65124C7.05279 4.43908 6.79775 4.33301 6.49984 4.33301C6.20192 4.33301 5.94689 4.43908 5.73473 4.65124C5.52258 4.86339 5.4165 5.11842 5.4165 5.41634C5.4165 5.71426 5.52258 5.96929 5.73473 6.18145C5.94689 6.3936 6.20192 6.49967 6.49984 6.49967ZM6.49984 11.9163C5.04637 10.6795 3.96077 9.53075 3.24307 8.46999C2.52536 7.40922 2.1665 6.42745 2.1665 5.52467C2.1665 4.17051 2.60209 3.09169 3.47327 2.28822C4.34446 1.48474 5.35331 1.08301 6.49984 1.08301C7.64637 1.08301 8.65522 1.48474 9.5264 2.28822C10.3976 3.09169 10.8332 4.17051 10.8332 5.52467C10.8332 6.42745 10.4743 7.40922 9.75661 8.46999C9.0389 9.53075 7.95331 10.6795 6.49984 11.9163Z" fill="#5E5854"/>
</g>
</svg>
