<svg width="15" height="15" viewBox="0 0 15 15" fill="none" xmlns="http://www.w3.org/2000/svg">
<path fill-rule="evenodd" clip-rule="evenodd" d="M0.351833 1.68445C0 2.36176 0 3.25159 0 5.03125V9.96875C0 11.7484 0 12.6382 0.351833 13.3155C0.648319 13.8863 1.1137 14.3517 1.68445 14.6482C2.36176 15 3.25159 15 5.03125 15H9.96875C11.7484 15 12.6382 15 13.3155 14.6482C13.8863 14.3517 14.3517 13.8863 14.6482 13.3155C15 12.6382 15 11.7484 15 9.96875V5.03125C15 3.25159 15 2.36176 14.6482 1.68445C14.3517 1.1137 13.8863 0.648319 13.3155 0.351833C12.6382 0 11.7484 0 9.96875 0H5.03125C3.25159 0 2.36176 0 1.68445 0.351833C1.1137 0.648319 0.648319 1.1137 0.351833 1.68445ZM4.77531 11.0495C6.72237 11.0495 8.30073 9.46028 8.30073 7.49993C8.30073 5.53958 6.72225 3.95044 4.77531 3.95044C2.82836 3.95044 1.25 5.5391 1.25 7.49993C1.25 9.46076 2.82824 11.0495 4.77531 11.0495ZM10.4055 10.8412C11.3789 10.8412 12.1682 9.34536 12.1682 7.49993C12.1682 5.65498 11.3789 4.15862 10.4055 4.15862C9.43198 4.15862 8.64274 5.65498 8.64274 7.49993C8.64274 9.34488 9.43198 10.8412 10.4055 10.8412ZM13.13 10.4936C13.4724 10.4936 13.75 9.15335 13.75 7.49993C13.75 5.84663 13.4726 4.50625 13.1301 4.50625C12.7877 4.50625 12.5101 5.84699 12.5101 7.49993C12.5101 9.15287 12.7877 10.4936 13.13 10.4936Z" fill="#5E5854"/>
</svg>
