<svg width="15" height="15" viewBox="0 0 15 15" fill="none" xmlns="http://www.w3.org/2000/svg">
<path d="M15 7.50022C15 11.2881 12.1919 14.4196 8.54428 14.9279C8.2031 14.9754 7.85413 15 7.49999 15C7.091 15 6.68979 14.9672 6.29851 14.9041C2.72774 14.3293 0 11.2328 0 7.49978C0 3.35776 3.35784 0 7.49999 0C11.6421 0 15 3.35819 15 7.50022Z" fill="#5E5854"/>
<path d="M11.9353 4.74907C11.7272 4.95939 11.4387 5.08938 11.1191 5.08938C11.0785 5.08938 11.0379 5.08722 10.9986 5.0829C11.332 4.88295 11.5894 4.56985 11.7177 4.19628C11.7177 4.19628 11.7181 4.19628 11.7181 4.19585C11.7358 4.14575 11.7509 4.09522 11.763 4.04297C11.4991 4.32498 11.1385 4.51586 10.7338 4.56121C10.6716 4.56855 10.6086 4.572 10.5447 4.572C10.5244 4.572 10.5049 4.57157 10.4855 4.57028C10.3486 4.42647 10.1854 4.3077 10.0044 4.22047C9.80271 4.122 9.57726 4.06413 9.33929 4.05679C9.31986 4.05549 9.30044 4.05506 9.28014 4.05506C9.07845 4.05506 8.88497 4.09091 8.70617 4.15698C8.66039 4.17382 8.6159 4.19196 8.57228 4.21312C8.00566 4.47872 7.6135 5.0544 7.6135 5.72163C7.6135 5.85853 7.63035 5.99155 7.66102 6.11852C7.4874 6.11161 7.31552 6.09476 7.14708 6.06972C7.0931 6.06108 7.0391 6.05201 6.98555 6.04164C6.55583 5.96175 6.14599 5.82442 5.76507 5.63785C5.42432 5.47115 5.10646 5.26558 4.81753 5.02633C4.57439 4.82594 4.35197 4.60224 4.15331 4.3578C4.14467 4.34743 4.13602 4.33664 4.12781 4.32627C4.11615 4.34398 4.10537 4.36169 4.09587 4.38026C3.9568 4.6234 3.8782 4.90454 3.8782 5.20426C3.8782 5.21333 3.87819 5.22326 3.87862 5.23233C3.88208 5.4569 3.92958 5.67067 4.01466 5.86501C4.05094 5.95138 4.095 6.03301 4.14553 6.11031C4.29453 6.33963 4.49793 6.53052 4.73805 6.66267C4.74885 6.66958 4.76008 6.67519 4.77131 6.68037C4.75403 6.68383 4.73634 6.68685 4.71863 6.68858C4.6694 6.69506 4.61844 6.69851 4.56747 6.69851C4.3118 6.69851 4.07384 6.61862 3.87906 6.48258C3.87777 6.49683 3.87776 6.51151 3.87776 6.5262C3.87776 7.00211 4.07728 7.43139 4.39687 7.73413C4.64564 7.97165 4.9674 8.13101 5.32499 8.17765C5.19629 8.22473 5.05721 8.25021 4.91253 8.25021C4.75576 8.25021 4.60547 8.22041 4.46813 8.16556C4.67284 8.83107 5.2831 9.31907 6.01039 9.34067C5.56598 9.80233 4.9419 10.0891 4.25133 10.0891C3.82204 10.0891 3.41867 9.9781 3.06885 9.78376C3.90972 10.5115 5.00625 10.9511 6.20558 10.9511C8.85602 10.9511 11.0042 8.80299 11.0042 6.15263C11.0042 6.00666 10.9977 5.86242 10.9848 5.7199C11.4231 5.54673 11.7708 5.19303 11.9353 4.7495V4.74907Z" fill="white"/>
</svg>
