<svg width="13" height="13" viewBox="0 0 13 13" fill="none" xmlns="http://www.w3.org/2000/svg">
<mask id="mask0_2088_1894" style="mask-type:alpha" maskUnits="userSpaceOnUse" x="0" y="0" width="13" height="13">
<rect width="13" height="13" fill="#D9D9D9"/>
</mask>
<g mask="url(#mask0_2088_1894)">
<path d="M2.97424 8.74764H4.29814C4.37666 9.06121 4.47089 9.3679 4.58085 9.66768L4.67473 9.63324L4.58085 9.66768C4.66987 9.91036 4.77281 10.1455 4.88967 10.3731C4.49844 10.2197 4.14542 10.0086 3.83009 9.73994C3.49357 9.45319 3.20834 9.12252 2.97424 8.74764ZM9.16359 3.25954L9.22812 3.18315L9.16359 3.25954C9.5019 3.54529 9.78806 3.87531 10.0223 4.24994H8.69844C8.61971 3.93622 8.52432 3.62985 8.41226 3.33086C8.3217 3.08926 8.21786 2.85487 8.10072 2.62773C8.49231 2.78104 8.84643 2.99164 9.16359 3.25954ZM4.58089 3.33142L4.67473 3.36596L4.58089 3.33142C4.47091 3.63024 4.37667 3.93642 4.29814 4.24994H2.97425C3.20833 3.87521 3.49351 3.54513 3.82997 3.25936C4.1453 2.99154 4.49835 2.78097 4.88964 2.62767C4.77281 2.85501 4.66989 3.0896 4.58089 3.33142ZM4.31914 11.6827C5.00406 11.9791 5.73131 12.1272 6.49992 12.1272C7.27527 12.1272 8.00431 11.9792 8.68602 11.6826C9.36574 11.3869 9.96141 10.9836 10.4723 10.4727C10.9832 9.96182 11.3865 9.36436 11.6822 8.68119C11.9786 7.99627 12.1267 7.26902 12.1267 6.50041C12.1267 5.72506 11.9787 4.99601 11.6821 4.31431C11.3864 3.63458 10.9831 3.03891 10.4723 2.52807C9.96141 2.01723 9.36574 1.61393 8.68602 1.31822C8.00432 1.02164 7.27527 0.873633 6.49992 0.873633C5.73131 0.873633 5.00406 1.02169 4.31914 1.31814C3.63597 1.61384 3.03851 2.01715 2.52758 2.52807C2.01674 3.03891 1.61344 3.63458 1.31773 4.31431C1.02115 4.99601 0.873145 5.72506 0.873145 6.50041C0.873145 7.26902 1.0212 7.99627 1.31766 8.68119C1.61335 9.36436 2.01666 9.96182 2.52758 10.4727C3.03851 10.9837 3.63597 11.387 4.31914 11.6827ZM7.00002 9.71959C6.85182 10.0229 6.68299 10.3146 6.49348 10.595C6.30445 10.3148 6.13732 10.0233 5.99205 9.72027C5.84459 9.41271 5.72039 9.08853 5.61952 8.74764H7.37702C7.27591 9.08828 7.15022 9.41223 7.00002 9.71959ZM9.16347 9.73977C8.84632 10.0085 8.49222 10.2196 8.10068 10.3731C8.21786 10.1456 8.32173 9.9107 8.4123 9.66824C8.52434 9.36828 8.61972 9.06141 8.69844 8.74764H10.0223C9.78805 9.12242 9.50184 9.45303 9.16347 9.73977ZM4.04458 5.52678C4.0252 5.66986 4.01008 5.81061 3.99923 5.94902C3.98547 6.12465 3.97861 6.30846 3.97861 6.50041C3.97861 6.69023 3.98547 6.87349 3.99923 7.05014C4.01008 7.18943 4.0252 7.33073 4.04459 7.47403H2.41938C2.38429 7.32501 2.35734 7.1774 2.33848 7.03119C2.31649 6.86073 2.30545 6.68382 2.30545 6.50041C2.30545 6.31478 2.3165 6.13737 2.33847 5.96808C2.35733 5.8228 2.38428 5.6757 2.41937 5.52678H4.04458ZM7.71132 7.03584C7.70192 7.17945 7.68706 7.32551 7.66673 7.47403H5.32979C5.30911 7.32512 5.29318 7.17865 5.28196 7.03461C5.26863 6.86349 5.26195 6.68543 5.26195 6.50041C5.26195 6.31319 5.26863 6.13462 5.28195 5.96464C5.29317 5.82152 5.30911 5.67556 5.32978 5.52678H7.66673C7.68707 5.67517 7.70192 5.8207 7.71132 5.9634C7.72255 6.13382 7.72818 6.31281 7.72818 6.50041C7.72818 6.68581 7.72255 6.86429 7.71132 7.03584ZM10.6549 7.03119C10.636 7.1774 10.6091 7.32501 10.574 7.47403H8.95073C8.96862 7.3305 8.98256 7.189 8.99256 7.04952C9.00521 6.87309 9.01151 6.69004 9.01151 6.50041C9.01151 6.30864 9.00521 6.12504 8.99255 5.94964C8.98256 5.81104 8.96862 5.67009 8.95074 5.52678H10.574C10.6091 5.6757 10.636 5.8228 10.6549 5.96808C10.6769 6.13737 10.6879 6.31478 10.6879 6.50041C10.6879 6.68382 10.6769 6.86073 10.6549 7.03119ZM6.49386 2.40525C6.68521 2.6857 6.85501 2.97718 7.00331 3.2797C7.15347 3.58605 7.27829 3.90943 7.37769 4.24994H5.61953C5.72039 3.90918 5.84457 3.58558 5.992 3.27903C6.13737 2.97675 6.30465 2.6855 6.49386 2.40525Z" fill="#5E5854" stroke="#5E5854" stroke-width="0.2"/>
</g>
</svg>
